<svg width="1280" height="720" xmlns="http://www.w3.org/2000/svg" xmlns:xlink="http://www.w3.org/1999/xlink" overflow="hidden"><defs><clipPath id="clip0"><rect x="77" y="683" width="103" height="17"/></clipPath><clipPath id="clip1"><rect x="77" y="683" width="103" height="17"/></clipPath><clipPath id="clip2"><rect x="77" y="683" width="103" height="17"/></clipPath></defs><g><rect x="0" y="0" width="1280" height="720" fill="#FFFFFF"/><g clip-path="url(#clip0)"><g clip-path="url(#clip1)"><g clip-path="url(#clip2)"><path d="M63.314 12.1748C63.1546 13.8927 61.7328 15.2186 60.0079 15.2578 58.9923 15.3694 58.0786 14.6369 57.9669 13.6213 57.9543 13.5069 57.9524 13.3916 57.9613 13.2768 57.9694 12.9248 58.0044 12.5739 58.0662 12.2272L59.47 5.24774 59.47 5.24774 57.817 5.24774 56.4132 12.3847 56.4132 12.4896C56.3371 12.8255 56.2975 13.1685 56.2951 13.5129 56.1774 15.1753 57.4296 16.6183 59.0919 16.736 59.2091 16.7442 59.3265 16.7457 59.4438 16.7403 60.6839 16.8037 61.8905 16.3249 62.7498 15.4284L62.5268 16.6091 62.5268 16.6091 64.1667 16.6091 66.3839 5.24774 66.3839 5.24774 64.7046 5.24774Z" transform="matrix(1 0 0 1.00299 77 683.105)"/><path d="M74.636 5.06407C73.4155 5.04941 72.2572 5.6019 71.5005 6.55967L71.7497 5.24774 71.7497 5.24774 70.1229 5.24774 67.8664 16.6091 67.8664 16.6091 69.5325 16.6091 70.8445 9.64272C71.0789 7.95241 72.4734 6.66225 74.1768 6.55967 74.8063 6.54524 75.4015 6.84534 75.7642 7.35995L75.7642 7.35995 77.0762 6.15297 77.0762 6.15297C76.4521 5.44314 75.5411 5.05269 74.5966 5.09031" transform="matrix(1 0 0 1.00299 77 683.105)"/><path d="M47.4789 5.20838 47.1903 6.65151 47.1903 6.67775 52.8447 6.67775 45.3142 15.2053 45.3011 15.2053 45.0256 16.596 53.0546 16.596 53.3433 15.1266 47.3346 15.1266 54.9045 6.59903 54.9045 6.59903 55.18 5.20838 47.4789 5.20838Z" transform="matrix(1 0 0 1.00299 77 683.105)"/><path d="M79.6213 5.20838 77.3386 16.5697 77.3386 16.596 78.9916 16.596 81.2612 5.20838 79.6213 5.20838Z" transform="matrix(1 0 0 1.00299 77 683.105)"/><path d="M99.8382 5.06407C98.6154 5.01258 97.4297 5.49067 96.5846 6.376L97.8966 0.0262387 96.2173 0.0262387 92.885 16.596 94.538 16.596 95.9287 9.6296C96.1068 7.91263 97.5351 6.59675 99.261 6.55967 100.277 6.45527 101.186 7.19449 101.29 8.21077 101.301 8.3204 101.303 8.43081 101.294 8.5407 101.289 8.89784 101.249 9.25363 101.176 9.60336L99.7726 16.6222 101.426 16.6222 102.882 9.44593C102.956 9.07425 102.995 8.69658 103 8.31767 103.125 6.6486 101.873 5.19426 100.204 5.0693 100.082 5.06018 99.9603 5.05844 99.8382 5.06407" transform="matrix(1 0 0 1.00299 77 683.105)"/><path d="M88.8442 5.06407C85.8268 5.06407 83.7146 7.1894 83.0324 10.8891 82.9294 11.465 82.8766 12.0488 82.8749 12.6339 82.684 14.7047 84.2078 16.5381 86.2786 16.729 86.4555 16.7453 86.6334 16.7491 86.8107 16.7403 88.2398 16.7453 89.6091 16.1672 90.6022 15.1397L90.6022 15.1397 89.6445 13.9721 89.6445 13.9721 89.6445 13.9721C88.9795 14.7988 87.9766 15.2809 86.9157 15.284 85.6125 15.3357 84.5142 14.3211 84.4625 13.018 84.4578 12.8985 84.4621 12.7789 84.4755 12.6602 84.4826 12.0871 84.5441 11.5161 84.6591 10.9547 84.842 9.75611 85.3503 8.63071 86.1285 7.70106 86.7765 6.97662 87.7018 6.56168 88.6737 6.55967 89.6055 6.52657 90.4713 7.03891 90.8908 7.87161L90.8908 7.87161 92.1109 6.83518 92.1109 6.83518C91.3973 5.72707 90.1478 5.08238 88.8311 5.14278" transform="matrix(1 0 0 1.00299 77 683.105)"/><path d="M80.6578 0 80.2379 2.07286 81.9041 2.07286 82.3108 0 80.6578 0Z" transform="matrix(1 0 0 1.00299 77 683.105)"/><path d="M64.521 0 64.1011 2.07286 65.7673 2.07286 66.174 0 64.521 0Z" transform="matrix(1 0 0 1.00299 77 683.105)"/><path d="M60.0997 0 59.6799 2.07286 61.333 2.07286 61.7528 0 60.0997 0Z" transform="matrix(1 0 0 1.00299 77 683.105)"/><path d="M38.807 0 37.4951 6.42848 33.7692 6.42848 35.0811 0 3.33231 0 0 16.596 12.6602 16.596 13.4867 12.4503 6.00866 12.4503 6.46784 10.1675 13.9327 10.1675 14.6937 6.42848 7.21564 6.42848 7.67482 4.14571 19.5085 4.14571 17.0158 16.596 22.1979 16.596 24.7037 4.14571 29.0594 4.14571 26.5536 16.596 31.7488 16.596 33.0214 10.1675 36.7604 10.1675 35.4747 16.596 40.67 16.596 44.0023 0 38.807 0Z" transform="matrix(1 0 0 1.00299 77 683.105)"/></g></g></g><text font-family="Arial,Arial_MSFontService,sans-serif" font-weight="700" font-size="35" transform="translate(76.8333 57)">Discussion</text><text font-family="Arial,Arial_MSFontService,sans-serif" font-weight="700" font-size="24" transform="translate(78.3793 356)">Low THI Thresholds</text><text font-family="Arial,Arial_MSFontService,sans-serif" font-weight="400" font-size="24" transform="translate(307.713 356)">: not unseen, but not common</text><text font-family="Arial,Arial_MSFontService,sans-serif" font-weight="400" font-size="24" transform="translate(631.713 356)">-</text><text font-family="Arial,Arial_MSFontService,sans-serif" font-style="italic" font-weight="400" font-size="13" transform="translate(646.379 356)">Ahmed et al (2022), Hill et al (2015),</text><text font-family="Arial,Arial_MSFontService,sans-serif" font-style="italic" font-weight="400" font-size="13" transform="translate(866.713 356)">Vinet</text><text font-family="Arial,Arial_MSFontService,sans-serif" font-style="italic" font-weight="400" font-size="13" transform="translate(900.546 356)">et al (2023)</text><text font-family="Arial,Arial_MSFontService,sans-serif" font-weight="700" font-size="24" transform="translate(78.3793 441)">Component drop:</text><text font-family="Arial,Arial_MSFontService,sans-serif" font-weight="400" font-size="13" transform="translate(286.379 441)">Bryant</text><text font-family="Arial,Arial_MSFontService,sans-serif" font-weight="400" font-size="13" transform="translate(328.379 441)">et al (2007), Chen et al (2024)</text><text font-family="Arial,Arial_MSFontService,sans-serif" font-weight="700" font-size="24" transform="translate(78.3793 525)">Lower thresholds for primiparous:</text><text font-family="Arial,Arial_MSFontService,sans-serif" font-weight="400" font-size="24" transform="translate(477.046 525)">similar findings by</text><text font-family="Arial,Arial_MSFontService,sans-serif" font-style="italic" font-weight="400" font-size="16" transform="translate(674.379 525)">Maggiolino</text><text font-family="Arial,Arial_MSFontService,sans-serif" font-style="italic" font-weight="400" font-size="16" transform="translate(755.713 525)">et al (2022)</text><text font-family="Arial,Arial_MSFontService,sans-serif" font-style="italic" font-weight="700" font-size="16" transform="translate(840.879 525)">,</text><text font-family="Open Sans,Open Sans_MSFontService,sans-serif" font-style="italic" font-weight="400" font-size="16" transform="translate(849.879 525)">J. Castro</text><text font-family="Open Sans,Open Sans_MSFontService,sans-serif" font-style="italic" font-weight="400" font-size="16" transform="translate(907.726 525)">-</text><text font-family="Open Sans,Open Sans_MSFontService,sans-serif" font-style="italic" font-weight="400" font-size="16" transform="translate(912.726 525)">Montoy</text><text font-family="Arial,Arial_MSFontService,sans-serif" font-style="italic" font-weight="400" font-size="16" transform="translate(969.906 525)">(2019</text><text font-family="Arial,Arial_MSFontService,sans-serif" font-weight="400" font-size="16" transform="translate(1010.57 525)">)</text><text font-family="Arial,Arial_MSFontService,sans-serif" font-weight="400" font-size="24" transform="translate(475.713 567)">contradicts</text><text font-family="Arial,Arial_MSFontService,sans-serif" font-style="italic" font-weight="400" font-size="16" transform="translate(598.379 567)">Bernabucci</text><text font-family="Arial,Arial_MSFontService,sans-serif" font-style="italic" font-weight="400" font-size="16" transform="translate(682.546 567)">et al (2014), West (2004)</text><text font-family="Arial,Arial_MSFontService,sans-serif" font-weight="400" font-size="16" transform="translate(858.926 567)">,</text><text font-family="Arial,Arial_MSFontService,sans-serif" font-style="italic" font-weight="400" font-size="16" transform="translate(867.926 567)">Aguilar et al (2010)</text><text font-family="Arial,Arial_MSFontService,sans-serif" font-weight="400" font-size="11" transform="translate(1099.6 700)">26.09.2024</text><text font-family="Arial,Arial_MSFontService,sans-serif" font-weight="400" font-size="11" transform="translate(1191.13 700)">18</text><text fill="#C00000" font-family="Arial,Arial_MSFontService,sans-serif" font-weight="700" font-size="24" transform="translate(86.4333 657)">Early component drop weighs out differences in volume drops across breeds!</text><path d="M150.656 120.369 559.754 120.369 559.754 158.947 150.656 158.947Z" fill="#215CAF" fill-rule="evenodd"/><path d="M150.656 158.947 221.513 158.947 221.513 197.525 150.656 197.525Z" fill="#CDCDE7" fill-rule="evenodd"/><path d="M221.513 158.947 288.758 158.947 288.758 197.525 221.513 197.525Z" fill="#FFCCFF" fill-rule="evenodd"/><path d="M288.758 158.947 354.657 158.947 354.657 197.525 288.758 197.525Z" fill="#CCE5E5" fill-rule="evenodd"/><path d="M354.657 158.947 425.601 158.947 425.601 197.525 354.657 197.525Z" fill="#F1F1F1" fill-rule="evenodd"/><path d="M425.601 158.947 495.078 158.947 495.078 197.525 425.601 197.525Z" fill="#E2CDCD" fill-rule="evenodd"/><path d="M495.078 158.947 559.754 158.947 559.754 197.525 495.078 197.525Z" fill="#DBEC8D" fill-rule="evenodd"/><path d="M150.656 197.525 221.513 197.525 221.513 232.591 150.656 232.591Z" fill="#CDCDE7" fill-rule="evenodd"/><path d="M221.513 197.525 288.758 197.525 288.758 232.591 221.513 232.591Z" fill="#FFCCFF" fill-rule="evenodd"/><path d="M288.758 197.525 354.657 197.525 354.657 232.591 288.758 232.591Z" fill="#CCE5E5" fill-rule="evenodd"/><path d="M354.657 197.525 425.601 197.525 425.601 232.591 354.657 232.591Z" fill="#F1F1F1" fill-rule="evenodd"/><path d="M425.601 197.525 495.078 197.525 495.078 232.591 425.601 232.591Z" fill="#E2CDCD" fill-rule="evenodd"/><path d="M495.078 197.525 559.754 197.525 559.754 232.591 495.078 232.591Z" fill="#DBEC8D" fill-rule="evenodd"/><path d="M150.656 232.591 221.513 232.591 221.513 267.658 150.656 267.658Z" fill="#CDCDE7" fill-rule="evenodd"/><path d="M221.513 232.591 288.758 232.591 288.758 267.658 221.513 267.658Z" fill="#FFCCFF" fill-rule="evenodd"/><path d="M288.758 232.591 354.657 232.591 354.657 267.658 288.758 267.658Z" fill="#CCE5E5" fill-rule="evenodd"/><path d="M354.657 232.591 425.601 232.591 425.601 267.658 354.657 267.658Z" fill="#F1F1F1" fill-rule="evenodd"/><path d="M425.601 232.591 495.078 232.591 495.078 267.658 425.601 267.658Z" fill="#E2CDCD" fill-rule="evenodd"/><path d="M495.078 232.591 559.754 232.591 559.754 267.658 495.078 267.658Z" fill="#DBEC8D" fill-rule="evenodd"/><path d="M150.656 119.703 150.656 268.325" stroke="#FFFFFF" stroke-width="1.33333" stroke-linejoin="round" stroke-miterlimit="10" fill="none" fill-rule="evenodd"/><path d="M221.513 158.28 221.513 268.325" stroke="#FFFFFF" stroke-width="1.33333" stroke-linejoin="round" stroke-miterlimit="10" fill="none" fill-rule="evenodd"/><path d="M288.758 158.28 288.758 268.325" stroke="#FFFFFF" stroke-width="1.33333" stroke-linejoin="round" stroke-miterlimit="10" fill="none" fill-rule="evenodd"/><path d="M354.657 158.28 354.657 268.325" stroke="#FFFFFF" stroke-width="1.33333" stroke-linejoin="round" stroke-miterlimit="10" fill="none" fill-rule="evenodd"/><path d="M425.601 158.28 425.601 268.325" stroke="#FFFFFF" stroke-width="1.33333" stroke-linejoin="round" stroke-miterlimit="10" fill="none" fill-rule="evenodd"/><path d="M495.078 158.28 495.078 268.325" stroke="#FFFFFF" stroke-width="1.33333" stroke-linejoin="round" stroke-miterlimit="10" fill="none" fill-rule="evenodd"/><path d="M8.27738 158.947 151.323 158.947" stroke="#FFFFFF" stroke-width="4" stroke-linejoin="round" stroke-miterlimit="10" fill="none" fill-rule="evenodd"/><path d="M151.323 158.947 560.421 158.947" stroke="#FFFFFF" stroke-width="1.33333" stroke-linejoin="round" stroke-miterlimit="10" fill="none" fill-rule="evenodd"/><path d="M8.27738 197.525 150.656 197.525" stroke="#FFFFFF" stroke-width="1.33333" stroke-linejoin="round" stroke-miterlimit="10" fill="none" fill-rule="evenodd"/><path d="M150.656 197.525 560.421 197.525" stroke="#FFFFFF" stroke-width="1.33333" stroke-linejoin="round" stroke-miterlimit="10" fill="none" fill-rule="evenodd"/><path d="M149.99 232.591 426.267 232.591" stroke="#FFFFFF" stroke-width="1.33333" stroke-linejoin="round" stroke-miterlimit="10" fill="none" fill-rule="evenodd"/><path d="M494.411 232.591 560.421 232.591" stroke="#FFFFFF" stroke-width="1.33333" stroke-linejoin="round" stroke-miterlimit="10" fill="none" fill-rule="evenodd"/><path d="M8.94404 119.703 8.94404 268.325" stroke="#FFFFFF" stroke-width="1.33333" stroke-linejoin="round" stroke-miterlimit="10" fill="none" fill-rule="evenodd"/><path d="M559.754 119.703 559.754 268.325" stroke="#FFFFFF" stroke-width="1.33333" stroke-linejoin="round" stroke-miterlimit="10" fill="none" fill-rule="evenodd"/><path d="M8.27738 120.369 560.421 120.369" stroke="#FFFFFF" stroke-width="1.33333" stroke-linejoin="round" stroke-miterlimit="10" fill="none" fill-rule="evenodd"/><path d="M8.27738 267.658 560.421 267.658" stroke="#FFFFFF" stroke-width="1.33333" stroke-linejoin="round" stroke-miterlimit="10" fill="none" fill-rule="evenodd"/><text fill="#FFFFFF" font-family="Arial,Arial_MSFontService,sans-serif" font-weight="700" font-size="16" transform="translate(225.145 146)">THI Thresholds Milk Yield [kg/day]</text><text font-family="Arial,Arial_MSFontService,sans-serif" font-weight="700" font-size="16" transform="translate(517.666 185)">JE</text><text font-family="Arial,Arial_MSFontService,sans-serif" font-weight="700" font-size="16" transform="translate(448.339 185)">OB</text><text font-family="Arial,Arial_MSFontService,sans-serif" font-weight="700" font-size="16" transform="translate(382.546 185)">SI</text><text font-family="Arial,Arial_MSFontService,sans-serif" font-weight="700" font-size="16" transform="translate(310.624 185)">BS</text><text font-family="Arial,Arial_MSFontService,sans-serif" font-weight="700" font-size="16" transform="translate(244.885 185)">SF</text><text font-family="Arial,Arial_MSFontService,sans-serif" font-weight="700" font-size="16" transform="translate(174.085 185)">HO</text><text font-family="Arial,Arial_MSFontService,sans-serif" font-weight="400" font-size="13" transform="translate(517.011 220)">58.12</text><text font-family="Arial,Arial_MSFontService,sans-serif" font-weight="400" font-size="13" transform="translate(452.367 220)">54.60</text><text font-family="Arial,Arial_MSFontService,sans-serif" font-weight="400" font-size="13" transform="translate(382.924 220)">55.28</text><text font-family="Arial,Arial_MSFontService,sans-serif" font-weight="400" font-size="13" transform="translate(312.024 220)">53.60</text><text font-family="Arial,Arial_MSFontService,sans-serif" font-weight="400" font-size="13" transform="translate(246.113 220)">54.38</text><text font-family="Arial,Arial_MSFontService,sans-serif" font-weight="400" font-size="13" transform="translate(178.756 220)">54.71</text><text font-family="Arial,Arial_MSFontService,sans-serif" font-weight="700" font-size="13" transform="translate(65.544 220)">Multiparous</text><text font-family="Arial,Arial_MSFontService,sans-serif" font-weight="400" font-size="13" transform="translate(517.011 255)">56.20</text><text font-family="Arial,Arial_MSFontService,sans-serif" font-weight="400" font-size="13" transform="translate(452.367 255)">51.20</text><text font-family="Arial,Arial_MSFontService,sans-serif" font-weight="400" font-size="13" transform="translate(382.924 255)">50.99</text><text font-family="Arial,Arial_MSFontService,sans-serif" font-weight="400" font-size="13" transform="translate(312.024 255)">48.04</text><text font-family="Arial,Arial_MSFontService,sans-serif" font-weight="400" font-size="13" transform="translate(246.113 255)">53.35</text><text font-family="Arial,Arial_MSFontService,sans-serif" font-weight="400" font-size="13" transform="translate(178.756 255)">51.90</text><text font-family="Arial,Arial_MSFontService,sans-serif" font-weight="700" font-size="13" transform="translate(63.544 255)">Primiparous</text><path d="M769.356 121.822 1178.45 121.822 1178.45 160.399 769.356 160.399Z" fill="#215CAF" fill-rule="evenodd"/><path d="M769.356 160.399 840.212 160.399 840.212 198.977 769.356 198.977Z" fill="#CDCDE7" fill-rule="evenodd"/><path d="M840.212 160.399 907.457 160.399 907.457 198.977 840.212 198.977Z" fill="#FFCCFF" fill-rule="evenodd"/><path d="M907.457 160.399 973.357 160.399 973.357 198.977 907.457 198.977Z" fill="#CCE5E5" fill-rule="evenodd"/><path d="M973.357 160.399 1044.3 160.399 1044.3 198.977 973.357 198.977Z" fill="#F1F1F1" fill-rule="evenodd"/><path d="M1044.3 160.399 1113.78 160.399 1113.78 198.977 1044.3 198.977Z" fill="#E2CDCD" fill-rule="evenodd"/><path d="M1113.78 160.399 1178.45 160.399 1178.45 198.977 1113.78 198.977Z" fill="#DBEC8D" fill-rule="evenodd"/><path d="M769.356 198.977 840.212 198.977 840.212 234.044 769.356 234.044Z" fill="#CDCDE7" fill-rule="evenodd"/><path d="M840.212 198.977 907.457 198.977 907.457 234.044 840.212 234.044Z" fill="#FFCCFF" fill-rule="evenodd"/><path d="M907.457 198.977 973.357 198.977 973.357 234.044 907.457 234.044Z" fill="#CCE5E5" fill-rule="evenodd"/><path d="M973.357 198.977 1044.3 198.977 1044.3 234.044 973.357 234.044Z" fill="#F1F1F1" fill-rule="evenodd"/><path d="M1044.3 198.977 1113.78 198.977 1113.78 234.044 1044.3 234.044Z" fill="#E2CDCD" fill-rule="evenodd"/><path d="M1113.78 198.977 1178.45 198.977 1178.45 234.044 1113.78 234.044Z" fill="#DBEC8D" fill-rule="evenodd"/><path d="M769.356 234.044 840.212 234.044 840.212 269.11 769.356 269.11Z" fill="#CDCDE7" fill-rule="evenodd"/><path d="M840.212 234.044 907.457 234.044 907.457 269.11 840.212 269.11Z" fill="#FFCCFF" fill-rule="evenodd"/><path d="M907.457 234.044 973.357 234.044 973.357 269.11 907.457 269.11Z" fill="#CCE5E5" fill-rule="evenodd"/><path d="M973.357 234.044 1044.3 234.044 1044.3 269.11 973.357 269.11Z" fill="#F1F1F1" fill-rule="evenodd"/><path d="M1044.3 234.044 1113.78 234.044 1113.78 269.11 1044.3 269.11Z" fill="#E2CDCD" fill-rule="evenodd"/><path d="M1113.78 234.044 1178.45 234.044 1178.45 269.11 1113.78 269.11Z" fill="#DBEC8D" fill-rule="evenodd"/><path d="M769.356 121.155 769.356 269.777" stroke="#FFFFFF" stroke-width="1.33333" stroke-linejoin="round" stroke-miterlimit="10" fill="none" fill-rule="evenodd"/><path d="M840.212 159.733 840.212 269.777" stroke="#FFFFFF" stroke-width="1.33333" stroke-linejoin="round" stroke-miterlimit="10" fill="none" fill-rule="evenodd"/><path d="M907.457 159.733 907.457 269.777" stroke="#FFFFFF" stroke-width="1.33333" stroke-linejoin="round" stroke-miterlimit="10" fill="none" fill-rule="evenodd"/><path d="M973.357 159.733 973.357 269.777" stroke="#FFFFFF" stroke-width="1.33333" stroke-linejoin="round" stroke-miterlimit="10" fill="none" fill-rule="evenodd"/><path d="M1044.3 159.733 1044.3 269.777" stroke="#FFFFFF" stroke-width="1.33333" stroke-linejoin="round" stroke-miterlimit="10" fill="none" fill-rule="evenodd"/><path d="M1113.78 159.733 1113.78 269.777" stroke="#FFFFFF" stroke-width="1.33333" stroke-linejoin="round" stroke-miterlimit="10" fill="none" fill-rule="evenodd"/><path d="M626.976 160.399 770.022 160.399" stroke="#FFFFFF" stroke-width="4" stroke-linejoin="round" stroke-miterlimit="10" fill="none" fill-rule="evenodd"/><path d="M770.022 160.399 1179.12 160.399" stroke="#FFFFFF" stroke-width="1.33333" stroke-linejoin="round" stroke-miterlimit="10" fill="none" fill-rule="evenodd"/><path d="M626.976 198.977 769.356 198.977" stroke="#FFFFFF" stroke-width="1.33333" stroke-linejoin="round" stroke-miterlimit="10" fill="none" fill-rule="evenodd"/><path d="M769.356 198.977 1179.12 198.977" stroke="#FFFFFF" stroke-width="1.33333" stroke-linejoin="round" stroke-miterlimit="10" fill="none" fill-rule="evenodd"/><path d="M768.689 234.044 1044.97 234.044" stroke="#FFFFFF" stroke-width="1.33333" stroke-linejoin="round" stroke-miterlimit="10" fill="none" fill-rule="evenodd"/><path d="M1113.11 234.044 1179.12 234.044" stroke="#FFFFFF" stroke-width="1.33333" stroke-linejoin="round" stroke-miterlimit="10" fill="none" fill-rule="evenodd"/><path d="M627.643 121.155 627.643 269.777" stroke="#FFFFFF" stroke-width="1.33333" stroke-linejoin="round" stroke-miterlimit="10" fill="none" fill-rule="evenodd"/><path d="M1178.45 121.155 1178.45 269.777" stroke="#FFFFFF" stroke-width="1.33333" stroke-linejoin="round" stroke-miterlimit="10" fill="none" fill-rule="evenodd"/><path d="M626.976 121.822 1179.12 121.822" stroke="#FFFFFF" stroke-width="1.33333" stroke-linejoin="round" stroke-miterlimit="10" fill="none" fill-rule="evenodd"/><path d="M626.976 269.11 1179.12 269.11" stroke="#FFFFFF" stroke-width="1.33333" stroke-linejoin="round" stroke-miterlimit="10" fill="none" fill-rule="evenodd"/><text fill="#FFFFFF" font-family="Arial,Arial_MSFontService,sans-serif" font-weight="700" font-size="16" transform="translate(841.678 148)">THI Thresholds ECM Yield [kg/day]</text><text font-family="Arial,Arial_MSFontService,sans-serif" font-weight="700" font-size="16" transform="translate(1136.36 186)">JE</text><text font-family="Arial,Arial_MSFontService,sans-serif" font-weight="700" font-size="16" transform="translate(1067.04 186)">OB</text><text font-family="Arial,Arial_MSFontService,sans-serif" font-weight="700" font-size="16" transform="translate(1001.24 186)">SI</text><text font-family="Arial,Arial_MSFontService,sans-serif" font-weight="700" font-size="16" transform="translate(929.323 186)">BS</text><text font-family="Arial,Arial_MSFontService,sans-serif" font-weight="700" font-size="16" transform="translate(863.584 186)">SF</text><text font-family="Arial,Arial_MSFontService,sans-serif" font-weight="700" font-size="16" transform="translate(792.784 186)">HO</text><text font-family="Arial,Arial_MSFontService,sans-serif" font-weight="400" font-size="13" transform="translate(1135.71 222)">52.59</text><text font-family="Arial,Arial_MSFontService,sans-serif" font-weight="400" font-size="13" transform="translate(1071.07 222)">52.68</text><text font-family="Arial,Arial_MSFontService,sans-serif" font-weight="400" font-size="13" transform="translate(1001.62 222)">52.76</text><text font-family="Arial,Arial_MSFontService,sans-serif" font-weight="400" font-size="13" transform="translate(930.723 222)">51.27</text><text font-family="Arial,Arial_MSFontService,sans-serif" font-weight="400" font-size="13" transform="translate(864.812 222)">52.26</text><text font-family="Arial,Arial_MSFontService,sans-serif" font-weight="400" font-size="13" transform="translate(797.456 222)">51.05</text><text font-family="Arial,Arial_MSFontService,sans-serif" font-weight="700" font-size="13" transform="translate(684.243 222)">Multiparous</text><text font-family="Arial,Arial_MSFontService,sans-serif" font-weight="400" font-size="13" transform="translate(1164.21 257)">-</text><text font-family="Arial,Arial_MSFontService,sans-serif" font-weight="400" font-size="13" transform="translate(1071.07 257)">49.71</text><text font-family="Arial,Arial_MSFontService,sans-serif" font-weight="400" font-size="13" transform="translate(1001.62 257)">48.88</text><text font-family="Arial,Arial_MSFontService,sans-serif" font-weight="400" font-size="13" transform="translate(959.223 257)">-</text><text font-family="Arial,Arial_MSFontService,sans-serif" font-weight="400" font-size="13" transform="translate(893.312 257)">-</text><text font-family="Arial,Arial_MSFontService,sans-serif" font-weight="400" font-size="13" transform="translate(797.456 257)">46.61</text><text font-family="Arial,Arial_MSFontService,sans-serif" font-weight="700" font-size="13" transform="translate(682.243 257)">Primiparous</text><text font-family="Calibri,Calibri_MSFontService,sans-serif" font-weight="400" font-size="20" transform="translate(176.962 291)">⃝</text><text fill="#191E3F" font-family="Segoe UI Symbol,Segoe UI Symbol_MSFontService,sans-serif" font-weight="400" font-size="27" transform="translate(246.339 294)">✕</text><text fill="#191E3F" font-family="Cambria Math,Cambria Math_MSFontService,sans-serif" font-weight="400" font-size="29" transform="translate(312.895 294)">△</text><text fill="#191E3F" font-family="Cambria Math,Cambria Math_MSFontService,sans-serif" font-weight="400" font-size="37" transform="translate(377.451 297)">◇</text><text fill="#191E3F" font-family="Calibri,Calibri_MSFontService,sans-serif" font-weight="400" font-size="40" transform="translate(451.752 295)">+</text><text font-family="Calibri,Calibri_MSFontService,sans-serif" font-weight="400" font-size="40" transform="translate(518.915 296)">□</text><text font-family="Calibri,Calibri_MSFontService,sans-serif" font-weight="400" font-size="20" transform="translate(797.318 292)">⃝</text><text fill="#191E3F" font-family="Segoe UI Symbol,Segoe UI Symbol_MSFontService,sans-serif" font-weight="400" font-size="27" transform="translate(866.696 295)">✕</text><text fill="#191E3F" font-family="Cambria Math,Cambria Math_MSFontService,sans-serif" font-weight="400" font-size="29" transform="translate(933.252 294)">△</text><text fill="#191E3F" font-family="Cambria Math,Cambria Math_MSFontService,sans-serif" font-weight="400" font-size="37" transform="translate(997.807 297)">◇</text><text fill="#191E3F" font-family="Calibri,Calibri_MSFontService,sans-serif" font-weight="400" font-size="40" transform="translate(1072.11 295)">+</text><text font-family="Calibri,Calibri_MSFontService,sans-serif" font-weight="400" font-size="40" transform="translate(1140.01 294)">□</text></g></svg>