<svg width="1280" height="720" xmlns="http://www.w3.org/2000/svg" xmlns:xlink="http://www.w3.org/1999/xlink" overflow="hidden"><defs><clipPath id="clip0"><rect x="77" y="683" width="103" height="17"/></clipPath><clipPath id="clip1"><rect x="77" y="683" width="103" height="17"/></clipPath><clipPath id="clip2"><rect x="77" y="683" width="103" height="17"/></clipPath></defs><g><rect x="0" y="0" width="1280" height="720" fill="#FFFFFF"/><g clip-path="url(#clip0)"><g clip-path="url(#clip1)"><g clip-path="url(#clip2)"><path d="M63.314 12.1748C63.1546 13.8927 61.7328 15.2186 60.0079 15.2578 58.9923 15.3694 58.0786 14.6369 57.9669 13.6213 57.9543 13.5069 57.9524 13.3916 57.9613 13.2768 57.9694 12.9248 58.0044 12.5739 58.0662 12.2272L59.47 5.24774 59.47 5.24774 57.817 5.24774 56.4132 12.3847 56.4132 12.4896C56.3371 12.8255 56.2975 13.1685 56.2951 13.5129 56.1774 15.1753 57.4296 16.6183 59.0919 16.736 59.2091 16.7442 59.3265 16.7457 59.4438 16.7403 60.6839 16.8037 61.8905 16.3249 62.7498 15.4284L62.5268 16.6091 62.5268 16.6091 64.1667 16.6091 66.3839 5.24774 66.3839 5.24774 64.7046 5.24774Z" transform="matrix(1 0 0 1.00299 77 683.105)"/><path d="M74.636 5.06407C73.4155 5.04941 72.2572 5.6019 71.5005 6.55967L71.7497 5.24774 71.7497 5.24774 70.1229 5.24774 67.8664 16.6091 67.8664 16.6091 69.5325 16.6091 70.8445 9.64272C71.0789 7.95241 72.4734 6.66225 74.1768 6.55967 74.8063 6.54524 75.4015 6.84534 75.7642 7.35995L75.7642 7.35995 77.0762 6.15297 77.0762 6.15297C76.4521 5.44314 75.5411 5.05269 74.5966 5.09031" transform="matrix(1 0 0 1.00299 77 683.105)"/><path d="M47.4789 5.20838 47.1903 6.65151 47.1903 6.67775 52.8447 6.67775 45.3142 15.2053 45.3011 15.2053 45.0256 16.596 53.0546 16.596 53.3433 15.1266 47.3346 15.1266 54.9045 6.59903 54.9045 6.59903 55.18 5.20838 47.4789 5.20838Z" transform="matrix(1 0 0 1.00299 77 683.105)"/><path d="M79.6213 5.20838 77.3386 16.5697 77.3386 16.596 78.9916 16.596 81.2612 5.20838 79.6213 5.20838Z" transform="matrix(1 0 0 1.00299 77 683.105)"/><path d="M99.8382 5.06407C98.6154 5.01258 97.4297 5.49067 96.5846 6.376L97.8966 0.0262387 96.2173 0.0262387 92.885 16.596 94.538 16.596 95.9287 9.6296C96.1068 7.91263 97.5351 6.59675 99.261 6.55967 100.277 6.45527 101.186 7.19449 101.29 8.21077 101.301 8.3204 101.303 8.43081 101.294 8.5407 101.289 8.89784 101.249 9.25363 101.176 9.60336L99.7726 16.6222 101.426 16.6222 102.882 9.44593C102.956 9.07425 102.995 8.69658 103 8.31767 103.125 6.6486 101.873 5.19426 100.204 5.0693 100.082 5.06018 99.9603 5.05844 99.8382 5.06407" transform="matrix(1 0 0 1.00299 77 683.105)"/><path d="M88.8442 5.06407C85.8268 5.06407 83.7146 7.1894 83.0324 10.8891 82.9294 11.465 82.8766 12.0488 82.8749 12.6339 82.684 14.7047 84.2078 16.5381 86.2786 16.729 86.4555 16.7453 86.6334 16.7491 86.8107 16.7403 88.2398 16.7453 89.6091 16.1672 90.6022 15.1397L90.6022 15.1397 89.6445 13.9721 89.6445 13.9721 89.6445 13.9721C88.9795 14.7988 87.9766 15.2809 86.9157 15.284 85.6125 15.3357 84.5142 14.3211 84.4625 13.018 84.4578 12.8985 84.4621 12.7789 84.4755 12.6602 84.4826 12.0871 84.5441 11.5161 84.6591 10.9547 84.842 9.75611 85.3503 8.63071 86.1285 7.70106 86.7765 6.97662 87.7018 6.56168 88.6737 6.55967 89.6055 6.52657 90.4713 7.03891 90.8908 7.87161L90.8908 7.87161 92.1109 6.83518 92.1109 6.83518C91.3973 5.72707 90.1478 5.08238 88.8311 5.14278" transform="matrix(1 0 0 1.00299 77 683.105)"/><path d="M80.6578 0 80.2379 2.07286 81.9041 2.07286 82.3108 0 80.6578 0Z" transform="matrix(1 0 0 1.00299 77 683.105)"/><path d="M64.521 0 64.1011 2.07286 65.7673 2.07286 66.174 0 64.521 0Z" transform="matrix(1 0 0 1.00299 77 683.105)"/><path d="M60.0997 0 59.6799 2.07286 61.333 2.07286 61.7528 0 60.0997 0Z" transform="matrix(1 0 0 1.00299 77 683.105)"/><path d="M38.807 0 37.4951 6.42848 33.7692 6.42848 35.0811 0 3.33231 0 0 16.596 12.6602 16.596 13.4867 12.4503 6.00866 12.4503 6.46784 10.1675 13.9327 10.1675 14.6937 6.42848 7.21564 6.42848 7.67482 4.14571 19.5085 4.14571 17.0158 16.596 22.1979 16.596 24.7037 4.14571 29.0594 4.14571 26.5536 16.596 31.7488 16.596 33.0214 10.1675 36.7604 10.1675 35.4747 16.596 40.67 16.596 44.0023 0 38.807 0Z" transform="matrix(1 0 0 1.00299 77 683.105)"/></g></g></g><text font-family="Arial,Arial_MSFontService,sans-serif" font-weight="700" font-size="35" transform="translate(76.8333 57)">Multi</text><text font-family="Arial,Arial_MSFontService,sans-serif" font-weight="700" font-size="35" transform="translate(157.667 57)">-</text><text font-family="Arial,Arial_MSFontService,sans-serif" font-weight="700" font-size="35" transform="translate(169.167 57)">Stage Data Cleaning</text><text font-family="Arial,Arial_MSFontService,sans-serif" font-weight="400" font-size="11" transform="translate(1099.6 700)">26.09.2024</text><text font-family="Arial,Arial_MSFontService,sans-serif" font-weight="400" font-size="11" transform="translate(1191.13 700)">39</text><rect x="77.5001" y="107.5" width="778" height="102" stroke="#082248" stroke-width="1.33333" stroke-miterlimit="8" fill="#215CAF"/><text fill="#FFFFFF" font-family="Arial,Arial_MSFontService,sans-serif" font-weight="700" font-size="24" transform="translate(259.793 166)">IQA Filtering</text><text fill="#FFFFFF" font-family="Arial,Arial_MSFontService,sans-serif" font-weight="400" font-size="24" transform="translate(409.566 166)">–</text><text fill="#FFFFFF" font-family="Arial,Arial_MSFontService,sans-serif" font-weight="400" font-size="24" transform="translate(429.566 166)">Drop unrealistic values</text><rect x="77.5001" y="367.5" width="778" height="102" stroke="#082248" stroke-width="1.33333" stroke-miterlimit="8" fill="#215CAF"/><text fill="#FFFFFF" font-family="Arial,Arial_MSFontService,sans-serif" font-weight="400" font-size="24" transform="translate(139.343 412)">Drop Research Farms, Farm Schools, Breeding Associations,</text><text fill="#FFFFFF" font-family="Arial,Arial_MSFontService,sans-serif" font-weight="400" font-size="24" transform="translate(337.35 441)">Research Organizations</text><rect x="77.5001" y="232.5" width="778" height="103" stroke="#082248" stroke-width="1.33333" stroke-miterlimit="8" fill="#215CAF"/><text fill="#FFFFFF" font-family="Arial,Arial_MSFontService,sans-serif" font-weight="400" font-size="24" transform="translate(154.013 278)">Only take samples where all target variables of interest are</text><text fill="#FFFFFF" font-family="Arial,Arial_MSFontService,sans-serif" font-weight="400" font-size="24" transform="translate(336.013 307)">simultaneously available</text><text font-family="Arial,Arial_MSFontService,sans-serif" font-weight="400" font-size="24" transform="translate(876.305 170)">E.g. 90 kg milk, 90% Protein</text><text font-family="Arial,Arial_MSFontService,sans-serif" font-weight="400" font-size="24" transform="translate(876.305 294)">Milk, Protein, Fat</text><text font-family="Arial,Arial_MSFontService,sans-serif" font-weight="400" font-size="24" transform="translate(875.827 429)">ETH,</text><text font-family="Arial,Arial_MSFontService,sans-serif" font-weight="400" font-size="24" transform="translate(935.834 429)">Agroscope</text><text font-family="Arial,Arial_MSFontService,sans-serif" font-weight="400" font-size="24" transform="translate(1050.5 429)">,</text><text font-family="Arial,Arial_MSFontService,sans-serif" font-weight="400" font-size="24" transform="translate(1063.83 429)">Qualitas</text><rect x="77.5001" y="501.5" width="778" height="102" stroke="#082248" stroke-width="1.33333" stroke-miterlimit="8" fill="#215CAF"/><text fill="#FFFFFF" font-family="Arial,Arial_MSFontService,sans-serif" font-weight="400" font-size="24" transform="translate(213.346 561)">Only Farms in Switzerland</text><text fill="#FFFFFF" font-family="Arial,Arial_MSFontService,sans-serif" font-weight="400" font-size="24" transform="translate(500.013 561)">–</text><text fill="#FFFFFF" font-family="Arial,Arial_MSFontService,sans-serif" font-weight="400" font-size="24" transform="translate(520.013 561)">Drop foreign farms</text><text font-family="Arial,Arial_MSFontService,sans-serif" font-weight="400" font-size="24" transform="translate(874.489 562)">Keep cows with international ID</text><text fill="#C00000" font-family="Arial,Arial_MSFontService,sans-serif" font-weight="700" font-size="24" transform="translate(77.4165 649)">Conservative data cleaning approach.</text></g></svg>