<svg width="1280" height="720" xmlns="http://www.w3.org/2000/svg" xmlns:xlink="http://www.w3.org/1999/xlink" overflow="hidden"><defs><clipPath id="clip0"><rect x="77" y="38" width="185" height="30"/></clipPath><clipPath id="clip1"><rect x="77" y="38" width="185" height="30"/></clipPath><clipPath id="clip2"><rect x="77" y="38" width="185" height="30"/></clipPath></defs><g><rect x="0" y="0" width="1280" height="720" fill="#FFFFFF"/><g clip-path="url(#clip0)"><g clip-path="url(#clip1)"><g clip-path="url(#clip2)"><path d="M113.059 21.736C112 26.9642 107.948 27.2517 107.151 27.2517 105.335 27.4515 103.702 26.1419 103.502 24.3266 103.48 24.1261 103.476 23.9239 103.491 23.7227 103.507 23.0911 103.572 22.4618 103.687 21.8406L106.197 9.33224 106.197 9.33224 103.256 9.33224 100.642 22.102 100.642 22.285C100.514 22.8913 100.444 23.5084 100.433 24.1279 100.227 27.0949 102.465 29.6667 105.432 29.8723 105.643 29.8869 105.855 29.889 106.066 29.8788 108.297 29.9765 110.458 29.0873 111.974 27.4478L111.582 29.5652 111.582 29.5652 114.496 29.5652 118.535 9.33224 118.535 9.33224 115.542 9.33224Z" transform="matrix(1.00591 0 0 1 77 38.0606)"/><path d="M133.318 9.04469C131.147 8.99492 129.078 9.96185 127.724 11.6588L128.09 9.33224 128.09 9.33224 125.214 9.33224 121.175 29.5913 121.175 29.5913 124.168 29.5913 126.652 17.1352C127.05 14.1514 129.48 11.8522 132.481 11.6196 133.599 11.6135 134.648 12.1556 135.291 13.0704L135.291 13.0704 137.696 10.9138 137.696 10.9138C136.597 9.65734 134.985 8.96948 133.318 9.04469" transform="matrix(1.00591 0 0 1 77 38.0606)"/><path d="M84.7744 9.29303 84.2646 11.8679 84.2646 11.9202 94.368 11.9202 80.9055 27.1471 80.9055 27.1471 80.3958 29.6436 94.747 29.6436 95.2568 27.0034 84.526 27.0034 98.0277 11.7895 98.0408 11.7764 98.5374 9.29303 84.7744 9.29303Z" transform="matrix(1.00591 0 0 1 77 38.0606)"/><path d="M142.179 9.29303 138.101 29.5913 138.088 29.6436 141.055 29.6436 145.094 9.29303 142.179 9.29303Z" transform="matrix(1.00591 0 0 1 77 38.0606)"/><path d="M178.28 9.04469C176.124 8.95256 174.032 9.78469 172.529 11.332L174.777 0 171.81 0 165.85 29.6436 168.817 29.6436 171.287 17.1875C172.346 11.9594 176.45 11.6718 177.247 11.6718 179.048 11.4775 180.666 12.7803 180.861 14.5817 180.883 14.7917 180.886 15.0035 180.868 15.2139 180.852 15.8461 180.781 16.4757 180.659 17.096L178.149 29.6436 181.116 29.6436 183.73 16.8216C183.869 16.1552 183.939 15.4764 183.939 14.7956 184.144 11.8287 181.907 9.25686 178.94 9.05124 178.728 9.03662 178.518 9.03444 178.306 9.04469" transform="matrix(1.00591 0 0 1 77 38.0606)"/><path d="M158.635 9.04469C153.25 9.04469 149.486 12.8351 148.283 19.501 148.087 20.5351 147.987 21.5852 147.983 22.6379 147.983 27.1471 150.727 29.9442 155.132 29.9442 157.68 29.9557 160.124 28.9322 161.903 27.1079L161.903 27.1079 160.203 25.0297 160.203 25.0297 160.203 25.0297C159.017 26.499 157.23 27.3539 155.341 27.3563 153.237 27.3563 150.989 26.0492 150.989 22.5856 150.997 21.5665 151.105 20.5507 151.316 19.5533 151.634 17.4108 152.539 15.3981 153.93 13.7369 155.077 12.4909 156.693 11.7802 158.387 11.7764 160.017 11.7105 161.541 12.5842 162.308 14.0245L162.308 14.0245 164.477 12.1816 164.477 12.1816 164.477 12.1816C163.2 10.1992 160.964 9.04834 158.609 9.16232" transform="matrix(1.00591 0 0 1 77 38.0606)"/><path d="M144.022 0 143.277 3.69891 146.244 3.69891 146.989 0 144.022 0Z" transform="matrix(1.00591 0 0 1 77 38.0606)"/><path d="M115.215 0 114.457 3.69891 117.437 3.69891 118.169 0 115.215 0Z" transform="matrix(1.00591 0 0 1 77 38.0606)"/><path d="M107.308 0 106.563 3.69891 109.53 3.69891 110.262 0 107.308 0Z" transform="matrix(1.00591 0 0 1 77 38.0606)"/><path d="M69.299 0 66.9595 11.4888 60.2936 11.4888 62.6332 0 5.94701 0 0 29.6436 22.5987 29.6436 24.0756 22.2327 10.7308 22.2327 11.5411 18.1547 24.886 18.1547 26.2322 11.4888 12.8874 11.4888 13.6977 7.41089 34.8456 7.41089 30.3755 29.6436 39.6424 29.6436 44.0994 7.41089 51.8893 7.41089 47.4193 29.6436 56.6862 29.6436 58.9735 18.1547 65.6394 18.1547 63.352 29.6436 72.6189 29.6436 78.5659 0 69.299 0Z" transform="matrix(1.00591 0 0 1 77 38.0606)"/></g></g></g><rect x="0" y="234" width="1104" height="419" fill="#215CAF"/><text fill="#FFFFFF" font-family="Arial,Arial_MSFontService,sans-serif" font-weight="700" font-size="48" transform="translate(113.386 308)">Modelling the Effect of Heat Stress on the</text><text fill="#FFFFFF" font-family="Arial,Arial_MSFontService,sans-serif" font-weight="700" font-size="48" transform="translate(113.386 365)">Performance of Swiss Dairy Cows</text><text fill="#FFFFFF" font-family="Arial,Arial_MSFontService,sans-serif" font-weight="700" font-size="48" transform="translate(113.386 480)">A Big Data Statistical Analysis</text><text fill="#FFFFFF" font-family="Arial,Arial_MSFontService,sans-serif" font-weight="700" font-size="24" transform="translate(116.845 564)">Arno Schneuwly</text><text font-family="Arial,Arial_MSFontService,sans-serif" font-weight="400" font-size="9" transform="translate(1169.3 694)">2</text></g></svg>